# xmcd
#
# Track frame offsets: 
#        150
#        32183
#        62403
#        96367
#        125618
#        153173
#        179729
#        272860
#
# Disc length: 4058 seconds
#
# Revision: 0
# Processed by: cddbd v1.4PL0 Copyright (c) Steve Scherf et al.
# Submitted via: ExactAudioCopy v0.90b4
#
DISCID=6f0fd808
DTITLE=Eric Clapton - Ringtrick CD 1
DYEAR=1986
DGENRE=Blues
TTITLE0=Crossroads
TTITLE1=White Room
TTITLE2=I Shot The Sheriff
TTITLE3=Wanna Make Love To You
TTITLE4=Run
TTITLE5=Miss You
TTITLE6=Same Old Blues
TTITLE7=Tearing Us Apart
EXTD=
EXTT0=
EXTT1=
EXTT2=
EXTT3=
EXTT4=
EXTT5=
EXTT6=
EXTT7=
PLAYORDER=
